<svg width="40" height="26" viewBox="0 0 40 26" fill="none" xmlns="http://www.w3.org/2000/svg">
<g clip-path="url(#clip0_2467_7941)">
<path d="M-6.10352e-05 0H39.922V26H-6.10352e-05V0Z" fill="white"/>
<path d="M-6.10352e-05 0H39.922V8.66667H-6.10352e-05V0ZM-6.10352e-05 17.3333H39.922V26H-6.10352e-05V17.3333Z" fill="#338AF3"/>
<path d="M20 16.0409C21.7225 16.0409 23.1189 14.6794 23.1189 12.9999C23.1189 11.3205 21.7225 9.95898 20 9.95898C18.2774 9.95898 16.881 11.3205 16.881 12.9999C16.881 14.6794 18.2774 16.0409 20 16.0409Z" fill="#FFDA44"/>
<path fill-rule="evenodd" clip-rule="evenodd" d="M19.9999 10.1492C18.3851 10.1492 17.076 11.4255 17.076 13C17.076 14.5745 18.3851 15.8509 19.9999 15.8509C21.6148 15.8509 22.9239 14.5745 22.9239 13C22.9239 11.4255 21.6148 10.1492 19.9999 10.1492ZM16.6861 13C16.6861 11.2156 18.1698 9.76904 19.9999 9.76904C21.8301 9.76904 23.3138 11.2156 23.3138 13C23.3138 14.7845 21.8301 16.231 19.9999 16.231C18.1698 16.231 16.6861 14.7845 16.6861 13Z" fill="#D6AB00"/>
</g>
<defs>
<clipPath id="clip0_2467_7941">
<rect x="-6.10352e-05" width="40" height="26" rx="2" fill="white"/>
</clipPath>
</defs>
</svg>
