<svg width="41" height="26" viewBox="0 0 41 26" fill="none" xmlns="http://www.w3.org/2000/svg">
<g clip-path="url(#clip0_2467_6833)">
<path d="M0.19989 0H40.1999V26H0.19989V0Z" fill="#009B3A"/>
<path d="M20.1999 1.46729L36.1765 12.9772L20.1999 24.4796L4.14532 12.9772L20.1999 1.46729Z" fill="#FEDF00"/>
<path d="M20.1999 19.1123C23.6622 19.1123 26.4689 16.3757 26.4689 13C26.4689 9.62426 23.6622 6.8877 20.1999 6.8877C16.7376 6.8877 13.9309 9.62426 13.9309 13C13.9309 16.3757 16.7376 19.1123 20.1999 19.1123Z" fill="white"/>
<path d="M17.0342 12.5972C15.9504 12.5972 14.8977 12.7568 13.9075 13.0533C13.9543 16.3908 16.7379 19.082 20.1687 19.082C22.2895 19.082 24.1687 18.0481 25.2993 16.4744C23.3578 14.1177 20.3714 12.5972 17.0342 12.5972V12.5972ZM26.3129 14.1405C26.3831 13.7603 26.4299 13.3726 26.4299 12.9697C26.4299 9.59426 23.6229 6.85742 20.1609 6.85742C17.58 6.85742 15.3656 8.38549 14.3987 10.5522C15.2486 10.3849 16.1219 10.2937 17.0186 10.2937C20.6677 10.3013 23.9582 11.7761 26.3129 14.1405V14.1405Z" fill="#002776"/>
</g>
<rect x="0.69989" y="0.5" width="39" height="25" rx="1.5" stroke="#111111" stroke-opacity="0.12"/>
<defs>
<clipPath id="clip0_2467_6833">
<rect x="0.19989" width="40" height="26" rx="2" fill="white"/>
</clipPath>
</defs>
</svg>
