<svg width="41" height="26" viewBox="0 0 41 26" fill="none" xmlns="http://www.w3.org/2000/svg">
<g clip-path="url(#clip0_2467_7018)">
<path d="M0.599976 0.0183105H40.522V26.0183H0.599976V0.0183105Z" fill="white"/>
<path d="M0.599976 0.0183105H40.522V6.95165H0.599976V0.0183105ZM0.599976 19.085H40.522V26.0183H0.599976V19.085Z" fill="#D03433"/>
<path d="M0.599976 6.93628H40.522V19.1H0.599976V6.93628Z" fill="#FBCA46"/>
<path d="M14.4396 12.1516H16.2139V13.0183H14.4396V12.1516V12.1516Z" fill="white"/>
<path d="M13.375 14.7516C13.375 15.2716 13.9073 15.6182 14.4396 15.6182C14.9719 15.6182 15.5042 15.2716 15.5042 14.7516L15.6816 12.1516H13.1976L13.375 14.7516V14.7516ZM12.3104 12.1516C12.3104 11.6316 12.6653 11.2849 13.0202 11.2849H15.6816C16.2139 11.2849 16.5688 11.6316 16.5688 11.9782V12.1516L16.3914 14.7516C16.2139 15.7916 15.5042 16.4849 14.4396 16.4849C13.375 16.4849 12.6653 15.7916 12.4879 14.7516L12.3104 12.1516Z" fill="#A41517"/>
<path d="M12.6653 13.0184H16.2139V13.8851H15.3268L14.4396 15.6184L13.5525 13.8851H12.6653V13.0184V13.0184ZM10.0038 10.4184H11.7781V16.4851H10.0038V10.4184ZM17.1011 10.4184H18.8754V16.4851H17.1011V10.4184ZM12.6653 9.55173C12.6653 9.03173 13.0202 8.68506 13.5525 8.68506H15.3268C15.8591 8.68506 16.2139 9.03173 16.2139 9.55173V9.89839C16.2139 10.2451 16.0365 10.4184 15.6816 10.4184H13.0202C12.8427 10.4184 12.6653 10.2451 12.6653 10.0717V9.55173V9.55173Z" fill="#A41517"/>
</g>
<defs>
<clipPath id="clip0_2467_7018">
<rect x="0.599976" width="40" height="26" rx="2" fill="white"/>
</clipPath>
</defs>
</svg>
