<svg width="40" height="26" viewBox="0 0 40 26" fill="none" xmlns="http://www.w3.org/2000/svg">
<g clip-path="url(#clip0_2467_7953)">
<path d="M1.34888 0H38.651V26H1.34888V0Z" fill="#181A93"/>
<path d="M-6.10352e-05 0H39.9999V8.66667H-6.10352e-05V0Z" fill="#FFA44A"/>
<path d="M-6.10352e-05 17.3333H39.9999V25.9999H-6.10352e-05V17.3333Z" fill="#1A9F0B"/>
<path d="M-6.10352e-05 8.66675H39.9999V17.3334H-6.10352e-05V8.66675Z" fill="white"/>
<path d="M19.9999 15.5999C21.4727 15.5999 22.6666 14.4358 22.6666 12.9999C22.6666 11.564 21.4727 10.3999 19.9999 10.3999C18.5272 10.3999 17.3333 11.564 17.3333 12.9999C17.3333 14.4358 18.5272 15.5999 19.9999 15.5999Z" fill="white"/>
<path d="M20 16.4668C18.0428 16.4668 16.4444 14.9083 16.4444 13.0001C16.4444 11.0919 18.0428 9.53345 20 9.53345C21.9571 9.53345 23.5555 11.0919 23.5555 13.0001C23.5555 14.9083 21.9571 16.4668 20 16.4668ZM20 15.6001C21.4191 15.6001 22.6666 14.3837 22.6666 13.0001C22.6666 11.6165 21.4269 10.4001 20 10.4001C18.5731 10.4001 17.3333 11.6165 17.3333 13.0001C17.3333 14.3837 18.5808 15.6001 20 15.6001Z" fill="#181A93"/>
<path d="M19.9999 14.7333C20.9818 14.7333 21.7777 13.9572 21.7777 12.9999C21.7777 12.0426 20.9818 11.2666 19.9999 11.2666C19.0181 11.2666 18.2222 12.0426 18.2222 12.9999C18.2222 13.9572 19.0181 14.7333 19.9999 14.7333Z" fill="#181A93"/>
</g>
<defs>
<clipPath id="clip0_2467_7953">
<rect x="-6.10352e-05" width="40" height="26" rx="2" fill="white"/>
</clipPath>
</defs>
</svg>
