<svg width="41" height="26" viewBox="0 0 41 26" fill="none" xmlns="http://www.w3.org/2000/svg">
<g clip-path="url(#clip0_2467_7872)">
<path d="M0.799988 -0.000244141H40.8V26.0001H0.799988V-0.000244141Z" fill="white"/>
<path d="M0.799988 -0.000244141H40.8V6.89933H0.799988V-0.000244141Z" fill="black"/>
<path d="M0.799988 19.1006H40.8V25.9993H0.799988V19.1006Z" fill="#496E2D"/>
<path d="M0.799988 8.62817H40.8V17.3726H0.799988V8.62817Z" fill="#A2001D"/>
<path d="M26.0551 4.14903L24.0564 3.24951L20.8 10.4388L17.5436 3.24951L15.5449 4.14903L19.5878 12.9995L15.5449 21.8501L17.5436 22.7495L20.8 15.5603L24.0564 22.7495L26.0551 21.8501L22.0122 12.9995L26.0551 4.14903Z" fill="white"/>
<path d="M22.1575 4.99666C21.3838 4.17278 20.8 3.69922 20.8 3.69922C20.8 3.69922 20.2163 4.1727 19.4425 4.99658V21.0024C20.2163 21.8262 20.8 22.2999 20.8 22.2999C20.8 22.2999 21.3838 21.8264 22.1575 21.0024V4.99666Z" fill="white"/>
<path d="M17.1312 8.06597V17.9329C17.9488 19.3453 18.9495 20.5031 19.6994 21.2706V4.72827C18.9494 5.49578 17.9487 6.65352 17.1312 8.06597V8.06597ZM24.4687 8.06597C23.6511 6.65352 22.6504 5.49578 21.9006 4.72827V21.2707C22.6505 20.5031 23.6511 19.3454 24.4687 17.933V8.06597Z" fill="#A2001D"/>
<path d="M24.4688 8.06616V17.9331C25.2964 16.503 25.9363 14.8121 25.9363 12.9997C25.9363 11.1872 25.2964 9.49629 24.4688 8.06616V8.06616ZM17.1313 8.06616V17.9331C16.3036 16.503 15.6638 14.8121 15.6638 12.9997C15.6638 11.1872 16.3036 9.49629 17.1313 8.06616V8.06616Z" fill="black"/>
</g>
<defs>
<clipPath id="clip0_2467_7872">
<rect x="0.799988" width="40" height="26" rx="2" fill="white"/>
</clipPath>
</defs>
</svg>
