<svg width="60" height="13" viewBox="0 0 60 13" fill="none" xmlns="http://www.w3.org/2000/svg">
<path fill-rule="evenodd" clip-rule="evenodd" d="M58.0064 3.15039V3.15281L55.9132 7.17812L55.9123 7.17887L53.8194 3.15281H53.8161L52.3242 3.15245V10.2114H53.8161V6.09636L55.3175 8.96995H55.9123V8.83914H55.9132V8.96995H56.5081L58.0064 6.10213V10.2122H59.5008V3.15039H58.0064Z" fill="#3A66FF"/>
<path fill-rule="evenodd" clip-rule="evenodd" d="M18.4516 10.1929H17.4269C15.9788 10.1929 14.8008 9.17895 14.8008 7.93265V5.43865C14.8008 4.19235 15.972 3.13867 17.42 3.13867H18.4448C19.8118 3.13867 20.9308 4.13849 20.9308 5.31854H19.4828C19.4828 4.92315 19.0106 4.58909 18.4516 4.58909H17.4269C16.7883 4.58909 16.2488 4.97813 16.2488 5.43865V7.93265C16.2488 8.3932 16.7883 8.78224 17.4269 8.78224H18.4516C19.0106 8.78224 19.4828 8.44818 19.4828 8.05276H20.9308C20.9308 9.23281 19.8187 10.1929 18.4516 10.1929Z" fill="#3A66FF"/>
<path fill-rule="evenodd" clip-rule="evenodd" d="M24.6999 4.59381C24.1664 4.59381 23.7339 5.03272 23.7339 5.57414V7.78943C23.7339 8.33088 24.1664 8.76978 24.6999 8.76978H26.0314C26.5649 8.76978 26.9974 8.33088 26.9974 7.78949V5.57414C26.9974 5.03272 26.5649 4.59381 26.0314 4.59381H24.6999ZM26.1627 10.2122H24.6999C23.3814 10.2122 22.3125 9.12754 22.3125 7.78949V5.57414C22.3125 4.23609 23.3814 3.15137 24.6999 3.15137H26.0314C27.35 3.15137 28.4188 4.23609 28.4188 5.57414V7.92274C28.4188 9.18717 27.4087 10.2122 26.1627 10.2122Z" fill="#3A66FF"/>
<path fill-rule="evenodd" clip-rule="evenodd" d="M32.198 4.59381C31.6653 4.59381 31.232 5.03359 31.232 5.57417V7.78949C31.232 8.33003 31.6653 8.76978 32.198 8.76978H33.5295C34.0621 8.76978 34.4955 8.33003 34.4955 7.78949V5.57417C34.4955 5.03359 34.0621 4.59381 33.5295 4.59381H32.198ZM33.5295 10.2122H32.198C30.8815 10.2122 29.8105 9.12539 29.8105 7.78949V5.57417C29.8105 4.23823 30.8815 3.15137 32.198 3.15137H33.5295C34.8459 3.15137 35.9169 4.23823 35.9169 5.57417V7.78949C35.9169 9.12539 34.8459 10.2122 33.5295 10.2122Z" fill="#3A66FF"/>
<path fill-rule="evenodd" clip-rule="evenodd" d="M47.2038 4.58994C46.6711 4.58994 46.2378 5.02761 46.2378 5.56564V7.79701C46.2378 8.33505 46.6711 8.77271 47.2038 8.77271H48.5353C49.068 8.77271 49.5014 8.33505 49.5014 7.79701V5.56564C49.5014 5.02761 49.068 4.58994 48.5353 4.58994H47.2038ZM48.5353 10.2084H47.2038C45.8874 10.2084 44.8164 9.12663 44.8164 7.79701V5.56564C44.8164 4.23602 45.8874 3.1543 47.2038 3.1543H48.5353C49.8518 3.1543 50.9227 4.23602 50.9227 5.56564V7.79701C50.9227 9.12663 49.8518 10.2084 48.5353 10.2084Z" fill="#3A66FF"/>
<path fill-rule="evenodd" clip-rule="evenodd" d="M42.0022 3.14502V6.01458H38.7083V3.14502H37.3125V10.2034H38.7083V7.40949H42.0022V10.2034H43.398V3.14502H42.0022Z" fill="#3A66FF"/>
<mask id="mask0_4458_6625" style="mask-type:alpha" maskUnits="userSpaceOnUse" x="0" y="0" width="13" height="13">
<path d="M0 0H12.0226V13H0V0Z" fill="#3A66FF"/>
</mask>
<g mask="url(#mask0_4458_6625)">
<path fill-rule="evenodd" clip-rule="evenodd" d="M10.5283 6.89617C10.5283 9.34871 8.58075 11.4177 6.18681 11.5079C6.1348 11.5099 6.0833 11.51 6.01131 11.51H5.99075C5.93928 11.51 5.88775 11.5099 5.83589 11.5079C3.44189 11.4177 1.49435 9.34871 1.49435 6.89617V4.60861C1.49435 4.52218 1.53945 4.44193 1.61339 4.39681L5.89275 1.78617C5.97249 1.73751 6.07283 1.73751 6.15257 1.78617L10.4093 4.38372C10.4832 4.42885 10.5283 4.50912 10.5283 4.59556V6.89617ZM11.857 3.50712L6.19094 0.0507376C6.07995 -0.0169327 5.94036 -0.0169025 5.8294 0.0507678L0.165597 3.50718C0.0627197 3.56996 0 3.68163 0 3.80192V6.87903C0 10.1583 2.61454 12.9037 5.82829 12.9989C5.85561 12.9997 5.88272 13 5.90986 13H6.11275C6.13989 13 6.16703 12.9997 6.19441 12.9989C9.40807 12.9037 12.0226 10.1583 12.0226 6.87903V3.80192C12.0226 3.6816 11.9599 3.56993 11.857 3.50712Z" fill="#3A66FF"/>
</g>
<path fill-rule="evenodd" clip-rule="evenodd" d="M8.02836 6.52583C7.62565 6.44952 7.23676 6.71346 7.16025 7.11537C7.05579 7.66414 6.5727 8.06242 6.0116 8.06242C5.45051 8.06242 4.96742 7.66414 4.8629 7.11534C4.78639 6.71346 4.39771 6.44949 3.99479 6.52586C3.59184 6.60218 3.32729 6.98988 3.4038 7.39179C3.64124 8.63881 4.73797 9.54385 6.0116 9.54385C7.28524 9.54385 8.38197 8.63878 8.61938 7.39173C8.69589 6.98985 8.43128 6.60215 8.02836 6.52583Z" fill="#3A66FF"/>
</svg>
