<svg width="41" height="26" viewBox="0 0 41 26" fill="none" xmlns="http://www.w3.org/2000/svg">
<g clip-path="url(#clip0_2467_7890)">
<path d="M0.599976 0H40.6V26H0.599976V0Z" fill="white"/>
<path d="M0.599976 0H40.6V1.85497H0.599976V0ZM0.599976 3.71754H40.6V5.57252H0.599976V3.71754ZM0.599976 7.42748H40.6V9.28246H0.599976V7.42748ZM0.599976 11.145H40.6V13H0.599976V11.145ZM0.599976 14.855H40.6V16.7099H0.599976V14.855ZM0.599976 18.5725H40.6V20.4275H0.599976V18.5725ZM0.599976 22.2825H40.6V24.1374H0.599976V22.2825Z" fill="#CC0000"/>
<path d="M0.599976 0H20.6V14.855H0.599976V0Z" fill="#000066"/>
<path d="M12.5532 3.20053C10.1594 2.33386 7.50056 3.51983 6.61168 5.85374C5.72279 8.18766 6.93916 10.7801 9.33292 11.6467C10.37 12.0268 11.5162 12.0268 12.561 11.6467C10.1672 13.5093 6.68185 13.1368 4.76372 10.8029C2.84559 8.46895 3.23546 5.0707 5.62922 3.20053C7.65651 1.62684 10.5337 1.62684 12.5532 3.20053ZM14.6351 8.90228L13.0288 10.6736L13.4499 8.34731L11.0327 8.22567L13.1614 7.09293L11.7501 5.16953L13.9801 6.08181L14.6351 3.80871L15.29 6.08181L17.5201 5.16953L16.1165 7.10053L18.2452 8.23328L15.8281 8.35491L16.2491 10.6812L14.6351 8.90228Z" fill="#FFCC00"/>
</g>
<defs>
<clipPath id="clip0_2467_7890">
<rect x="0.599976" width="40" height="26" rx="2" fill="white"/>
</clipPath>
</defs>
</svg>
