<svg width="41" height="26" viewBox="0 0 41 26" fill="none" xmlns="http://www.w3.org/2000/svg">
<g clip-path="url(#clip0_2467_7859)">
<path d="M0.799988 0.000244141H40.8V25.9997H0.799988V0.000244141Z" fill="white"/>
<path d="M40.8 0.000244141V13H20.8L0.799988 0.000244141H40.8Z" fill="#0052B4"/>
<path d="M40.8 13V25.9997H0.799988L20.8 13H40.8Z" fill="#D80027"/>
<path d="M13.449 12.9999L11.3172 12.0222L12.4525 10.0092L10.1375 10.4409L9.84413 8.16086L8.23163 9.83779L6.6192 8.16086L6.32584 10.4409L4.01092 10.0091L5.14616 12.0222L3.01428 12.9999L5.14616 13.9776L4.01092 15.9907L6.326 15.5589L6.6192 17.839L8.23163 16.162L9.84413 17.839L10.1375 15.5589L12.4524 15.9907L11.3171 13.9777L13.449 12.9999ZM2.50225 2.45825L3.2117 3.42533L4.37413 3.06626L3.65006 4.02298L4.35952 4.9899L3.20256 4.61422L2.4785 5.57087L2.48764 4.38197L1.33069 4.00614L2.49319 3.64722L2.50225 2.45825ZM2.50225 20.429L3.2117 21.396L4.37413 21.037L3.65006 21.9937L4.35952 22.9607L3.20256 22.5849L2.4785 23.5415L2.48764 22.3527L1.33069 21.9769L2.49319 21.6179L2.50225 20.429ZM17.2371 11.4436L16.5276 12.4107L15.3652 12.0517L16.0893 13.0083L15.3798 13.9754L16.5368 13.5996L17.2608 14.5562L17.2517 13.3674L18.4087 12.9915L17.2462 12.6325L17.2371 11.4436Z" fill="#FFDA44"/>
</g>
<defs>
<clipPath id="clip0_2467_7859">
<rect x="0.799988" width="40" height="26" rx="2" fill="white"/>
</clipPath>
</defs>
</svg>
