<svg width="41" height="26" viewBox="0 0 41 26" fill="none" xmlns="http://www.w3.org/2000/svg">
<g clip-path="url(#clip0_2467_7928)">
<path d="M0.19989 0.000244141H40.1999V25.9997H0.19989V0.000244141Z" fill="#D80027"/>
<path d="M15.5625 0.000244141V25.9997H0.19989V0.000244141H15.5625Z" fill="#6DA544"/>
<path d="M15.5624 17.875C18.3239 17.875 20.5624 15.6924 20.5624 13C20.5624 10.3076 18.3239 8.125 15.5624 8.125C12.801 8.125 10.5624 10.3076 10.5624 13C10.5624 15.6924 12.801 17.875 15.5624 17.875Z" fill="#FFDA44"/>
<path d="M12.7498 10.5625V13.6095C12.7498 15.1239 14.009 16.3516 15.5623 16.3516C17.1155 16.3516 18.3748 15.1239 18.3748 13.6095V10.5625H12.7498Z" fill="#D80027"/>
<path d="M15.5623 14.5234C15.0453 14.5234 14.6248 14.1134 14.6248 13.6094V12.3906H16.4998V13.6094C16.4998 14.1133 16.0791 14.5234 15.5623 14.5234Z" fill="white"/>
</g>
<rect x="0.69989" y="0.5" width="39" height="25" rx="1.5" stroke="#111111" stroke-opacity="0.12"/>
<defs>
<clipPath id="clip0_2467_7928">
<rect x="0.19989" width="40" height="26" rx="2" fill="white"/>
</clipPath>
</defs>
</svg>
