<svg width="41" height="26" viewBox="0 0 41 26" fill="none" xmlns="http://www.w3.org/2000/svg">
<g clip-path="url(#clip0_2467_6990)">
<path d="M0.799988 0.000244141H40.8V25.9997H0.799988V0.000244141Z" fill="white"/>
<path d="M0.799988 0.000244141H40.8V13H0.799988V0.000244141Z" fill="#D80027"/>
<path d="M7.3217 6.49998C7.3217 4.60597 8.68702 3.02372 10.5101 2.63547C10.2245 2.57442 9.933 2.54356 9.64061 2.54346C7.39936 2.54346 5.58264 4.31476 5.58264 6.4999C5.58264 8.68505 7.39944 10.4564 9.64061 10.4564C9.9392 10.4564 10.2299 10.4241 10.5101 10.3644C8.68702 9.97632 7.3217 8.39407 7.3217 6.49998ZM12.5391 2.82613L12.8269 3.68969H13.7583L13.0048 4.22343L13.2926 5.08699L12.5391 4.55333L11.7856 5.08699L12.0735 4.22343L11.32 3.68969H12.2513L12.5391 2.82613Z" fill="white"/>
<path d="M10.28 4.52173L10.5677 5.38529H11.4991L10.7455 5.91903L11.0334 6.78259L10.28 6.24893L9.52648 6.78259L9.81437 5.91903L9.06085 5.38529H9.99218L10.28 4.52173ZM14.7983 4.52173L15.0861 5.38529H16.0174L15.2639 5.91903L15.5517 6.78259L14.7983 6.24893L14.0448 6.78259L14.3327 5.91903L13.5792 5.38529H14.5105L14.7983 4.52173ZM13.9287 7.06519L14.2165 7.92875H15.1478L14.3944 8.46248L14.6822 9.32605L13.9287 8.79238L13.1753 9.32605L13.4631 8.46248L12.7097 7.92875H13.6409L13.9287 7.06519ZM11.1495 7.06519L11.4373 7.92875H12.3686L11.6151 8.46248L11.903 9.32605L11.1495 8.79238L10.3961 9.32605L10.6839 8.46248L9.93046 7.92875H10.8617L11.1495 7.06519Z" fill="white"/>
</g>
<rect x="1.29999" y="0.5" width="39" height="25" rx="1.5" stroke="#111111" stroke-opacity="0.12"/>
<defs>
<clipPath id="clip0_2467_6990">
<rect x="0.799988" width="40" height="26" rx="2" fill="white"/>
</clipPath>
</defs>
</svg>
