<svg width="41" height="26" viewBox="0 0 41 26" fill="none" xmlns="http://www.w3.org/2000/svg">
<g clip-path="url(#clip0_2467_7903)">
<path d="M0.399963 0H40.4V26H0.399963V0Z" fill="#0052B4"/>
<path d="M40.4 0V17.8817H33.1968L40.4 22.5577V26H36.8687L25.4 18.5518V26H15.4V18.5518L3.93121 26H0.399963V22.5577L7.60309 17.8817H0.399963V8.13357H7.60309L0.399963 3.45753V0H3.93121L15.4 7.44816V0H25.4V7.44816L36.8687 0H40.4Z" fill="white"/>
<path d="M22.9 0H17.9V10.5706H0.399963V15.4446H17.9V26H22.9V15.4446H40.4V10.5706H22.9V0Z" fill="#D80027"/>
<path d="M40.4 3.42114V8.13459H33.2265L40.4 3.42114Z" fill="#2E52B2"/>
<path d="M0.399963 25.9999V24.3245L10.1637 17.8816H13.6942L1.54036 25.9999H0.399963Z" fill="#D80027"/>
<path d="M1.54059 0L13.6968 8.10786H10.1656L0.399963 1.67644V0H1.54059ZM40.4 0V1.67644L30.6343 8.1231H27.1031L39.2593 0H40.4ZM39.2593 26L27.1031 17.8769H30.6343L40.4 24.3236V26H39.2593Z" fill="#D80027"/>
</g>
<defs>
<clipPath id="clip0_2467_7903">
<rect x="0.399963" width="40" height="26" rx="2" fill="white"/>
</clipPath>
</defs>
</svg>
