<svg width="41" height="26" viewBox="0 0 41 26" fill="none" xmlns="http://www.w3.org/2000/svg">
<g clip-path="url(#clip0_2467_7058)">
<path d="M0.19989 0H40.1999V26H0.19989V0Z" fill="white"/>
<path d="M0.19989 0H40.1999V1.99942H0.19989V0ZM0.19989 3.99883H40.1999V5.99825H0.19989V3.99883ZM0.19989 7.99766H40.1999V9.99708H0.19989V7.99766ZM0.19989 11.9965H40.1999V13.9959H0.19989V11.9965ZM0.19989 16.0029H40.1999V18.0023H0.19989V16.0029ZM0.19989 20.0018H40.1999V22.0012H0.19989V20.0018ZM0.19989 24.0006H40.1999V26H0.19989V24.0006Z" fill="#D80027"/>
<path d="M0.19989 0H20.1999V13.9959H0.19989V0Z" fill="#2E52B2"/>
<path d="M3.92701 10.5596L3.61512 9.58646L3.27204 10.5596H2.2428L3.07711 11.1449L2.76522 12.118L3.61512 11.5175L4.44163 12.118L4.12194 11.1449L4.97184 10.5596H3.92701ZM8.31687 10.5596L7.99718 9.58646L7.6697 10.5596H6.64046L7.47477 11.1449L7.16288 12.118L7.99718 11.5175L8.83929 12.118L8.5274 11.1449L9.36171 10.5596H8.31687ZM12.7223 10.5596L12.387 9.58646L12.0752 10.5596H11.0225L11.8802 11.1449L11.5527 12.118L12.387 11.5175L13.2447 12.118L12.9173 11.1449L13.7516 10.5596H12.7223ZM17.1044 10.5596L16.7925 9.58646L16.465 10.5596H15.428L16.2701 11.1449L15.9582 12.118L16.7925 11.5175L17.6346 12.118L17.2993 11.1449L18.157 10.5596H17.1044ZM7.99718 5.72447L7.6697 6.69757H6.64046L7.47477 7.29815L7.16288 8.25605L7.99718 7.66307L8.83929 8.25605L8.5274 7.29815L9.36171 6.69757H8.31687L7.99718 5.72447ZM3.61512 5.72447L3.27204 6.69757H2.2428L3.07711 7.29815L2.76522 8.25605L3.61512 7.66307L4.44163 8.25605L4.12194 7.29815L4.97184 6.69757H3.92701L3.61512 5.72447ZM12.387 5.72447L12.0752 6.69757H11.0225L11.8802 7.29815L11.5527 8.25605L12.387 7.66307L13.2447 8.25605L12.9173 7.29815L13.7516 6.69757H12.7223L12.387 5.72447ZM16.7925 5.72447L16.465 6.69757H15.428L16.2701 7.29815L15.9582 8.25605L16.7925 7.66307L17.6346 8.25605L17.2993 7.29815L18.157 6.69757H17.1044L16.7925 5.72447ZM3.61512 1.87769L3.27204 2.83558H2.2428L3.07711 3.43617L2.76522 4.40166L3.61512 3.80108L4.44163 4.40166L4.12194 3.43617L4.97184 2.83558H3.92701L3.61512 1.87769ZM7.99718 1.87769L7.6697 2.83558H6.64046L7.47477 3.43617L7.16288 4.40166L7.99718 3.80108L8.83929 4.40166L8.5274 3.43617L9.36171 2.83558H8.31687L7.99718 1.87769ZM12.387 1.87769L12.0752 2.83558H11.0225L11.8802 3.43617L11.5527 4.40166L12.387 3.80108L13.2447 4.40166L12.9173 3.43617L13.7516 2.83558H12.7223L12.387 1.87769ZM16.7925 1.87769L16.465 2.83558H15.428L16.2701 3.43617L15.9582 4.40166L16.7925 3.80108L17.6346 4.40166L17.2993 3.43617L18.157 2.83558H17.1044L16.7925 1.87769Z" fill="white"/>
</g>
<rect x="0.69989" y="0.5" width="39" height="25" rx="1.5" stroke="#111111" stroke-opacity="0.12"/>
<defs>
<clipPath id="clip0_2467_7058">
<rect x="0.19989" width="40" height="26" rx="2" fill="white"/>
</clipPath>
</defs>
</svg>
